<svg xmlns="http://www.w3.org/2000/svg" viewBox="0 0 256 256">
<rect width="256" height="256" fill="#ffffff"/>
<path d="M85 80 Q70 80 60 90 Q50 100 50 115 Q50 130 60 140 Q70 150 85 150 L95 150 Q95 165 105 175 Q115 185 130 185 Q145 185 155 175 L155 170 Q150 175 140 175 Q130 175 122 167 Q115 160 115 150 L115 100 Q115 90 107 85 Q100 80 90 80 L85 80 M85 95 Q95 95 100 100 Q105 105 105 115 L105 140 L85 140 Q75 140 70 130 Q65 120 65 115 Q65 105 70 100 Q75 95 85 95 Z" fill="#E91E8C"/>
<path d="M150 80 Q135 80 125 90 Q115 100 115 115 L115 150 Q115 165 125 175 Q135 185 150 185 L160 185 Q175 185 185 175 Q195 165 195 150 Q195 135 185 125 Q175 115 160 115 L140 115 L140 100 Q140 95 145 92 Q150 90 155 90 Q165 90 172 97 Q180 105 180 115 L195 115 Q195 100 185 90 Q175 80 160 80 L150 80 M140 125 L160 125 Q170 125 177 132 Q185 140 185 150 Q185 160 177 167 Q170 175 160 175 L150 175 Q140 175 132 167 Q125 160 125 150 L125 125 L140 125 Z" fill="#E91E8C"/>
</svg>